<mxfile host="app.diagrams.net" modified="2024-02-22T04:14:16.797Z" agent="Mozilla/5.0 (Windows NT 10.0; Win64; x64) AppleWebKit/537.36 (KHTML, like Gecko) Chrome/120.0.0.0 Safari/537.36" etag="i9rxhkBPTcwI4cwvaa5R" version="22.1.16" type="github">
  <diagram id="C5RBs43oDa-KdzZeNtuy" name="Page-1">
    <mxGraphModel dx="1050" dy="557" grid="0" gridSize="10" guides="1" tooltips="1" connect="1" arrows="1" fold="1" page="1" pageScale="1" pageWidth="827" pageHeight="1169" math="0" shadow="0">
      <root>
        <mxCell id="WIyWlLk6GJQsqaUBKTNV-0" />
        <mxCell id="WIyWlLk6GJQsqaUBKTNV-1" parent="WIyWlLk6GJQsqaUBKTNV-0" />
        <mxCell id="3ew8jx3CTY04XwqsGUMI-3" style="edgeStyle=orthogonalEdgeStyle;rounded=0;orthogonalLoop=1;jettySize=auto;html=1;entryX=0.5;entryY=0;entryDx=0;entryDy=0;" edge="1" parent="WIyWlLk6GJQsqaUBKTNV-1" source="WIyWlLk6GJQsqaUBKTNV-3" target="3ew8jx3CTY04XwqsGUMI-2">
          <mxGeometry relative="1" as="geometry" />
        </mxCell>
        <mxCell id="WIyWlLk6GJQsqaUBKTNV-3" value="开始" style="rounded=1;whiteSpace=wrap;html=1;fontSize=12;glass=0;strokeWidth=1;shadow=0;" parent="WIyWlLk6GJQsqaUBKTNV-1" vertex="1">
          <mxGeometry x="365" y="28" width="57" height="22" as="geometry" />
        </mxCell>
        <mxCell id="3ew8jx3CTY04XwqsGUMI-5" style="edgeStyle=orthogonalEdgeStyle;rounded=0;orthogonalLoop=1;jettySize=auto;html=1;exitX=0.5;exitY=1;exitDx=0;exitDy=0;entryX=0.5;entryY=0;entryDx=0;entryDy=0;" edge="1" parent="WIyWlLk6GJQsqaUBKTNV-1" source="3ew8jx3CTY04XwqsGUMI-2" target="3ew8jx3CTY04XwqsGUMI-4">
          <mxGeometry relative="1" as="geometry" />
        </mxCell>
        <mxCell id="3ew8jx3CTY04XwqsGUMI-2" value="&lt;font face=&quot;Helvetica&quot;&gt;初始化种群&lt;/font&gt;" style="rounded=0;whiteSpace=wrap;html=1;" vertex="1" parent="WIyWlLk6GJQsqaUBKTNV-1">
          <mxGeometry x="333.5" y="73" width="120" height="27" as="geometry" />
        </mxCell>
        <mxCell id="3ew8jx3CTY04XwqsGUMI-7" style="edgeStyle=orthogonalEdgeStyle;rounded=0;orthogonalLoop=1;jettySize=auto;html=1;exitX=0.5;exitY=1;exitDx=0;exitDy=0;entryX=0.5;entryY=0;entryDx=0;entryDy=0;" edge="1" parent="WIyWlLk6GJQsqaUBKTNV-1" source="3ew8jx3CTY04XwqsGUMI-4" target="3ew8jx3CTY04XwqsGUMI-6">
          <mxGeometry relative="1" as="geometry" />
        </mxCell>
        <mxCell id="3ew8jx3CTY04XwqsGUMI-4" value="计算适应度，确定最优个体" style="rounded=0;whiteSpace=wrap;html=1;" vertex="1" parent="WIyWlLk6GJQsqaUBKTNV-1">
          <mxGeometry x="333.5" y="120" width="120.5" height="45" as="geometry" />
        </mxCell>
        <mxCell id="3ew8jx3CTY04XwqsGUMI-9" style="edgeStyle=orthogonalEdgeStyle;rounded=0;orthogonalLoop=1;jettySize=auto;html=1;exitX=0.5;exitY=1;exitDx=0;exitDy=0;entryX=0.5;entryY=0;entryDx=0;entryDy=0;" edge="1" parent="WIyWlLk6GJQsqaUBKTNV-1" source="3ew8jx3CTY04XwqsGUMI-6" target="3ew8jx3CTY04XwqsGUMI-8">
          <mxGeometry relative="1" as="geometry" />
        </mxCell>
        <mxCell id="3ew8jx3CTY04XwqsGUMI-6" value="更新逃逸能量&lt;font face=&quot;Times New Roman&quot;&gt;E&lt;/font&gt;和跳跃强度&lt;font face=&quot;Times New Roman&quot;&gt;J&lt;/font&gt;" style="rounded=0;whiteSpace=wrap;html=1;" vertex="1" parent="WIyWlLk6GJQsqaUBKTNV-1">
          <mxGeometry x="306.5" y="189" width="174" height="41" as="geometry" />
        </mxCell>
        <mxCell id="3ew8jx3CTY04XwqsGUMI-12" style="edgeStyle=orthogonalEdgeStyle;rounded=0;orthogonalLoop=1;jettySize=auto;html=1;exitX=1;exitY=0.5;exitDx=0;exitDy=0;entryX=0;entryY=0.5;entryDx=0;entryDy=0;" edge="1" parent="WIyWlLk6GJQsqaUBKTNV-1" source="3ew8jx3CTY04XwqsGUMI-8" target="3ew8jx3CTY04XwqsGUMI-11">
          <mxGeometry relative="1" as="geometry" />
        </mxCell>
        <mxCell id="3ew8jx3CTY04XwqsGUMI-19" style="edgeStyle=orthogonalEdgeStyle;rounded=0;orthogonalLoop=1;jettySize=auto;html=1;exitX=0.5;exitY=1;exitDx=0;exitDy=0;entryX=0.5;entryY=0;entryDx=0;entryDy=0;" edge="1" parent="WIyWlLk6GJQsqaUBKTNV-1" source="3ew8jx3CTY04XwqsGUMI-8" target="3ew8jx3CTY04XwqsGUMI-18">
          <mxGeometry relative="1" as="geometry" />
        </mxCell>
        <mxCell id="3ew8jx3CTY04XwqsGUMI-8" value="&lt;font face=&quot;Times New Roman&quot;&gt;|E|≥1？&lt;/font&gt;" style="rhombus;whiteSpace=wrap;html=1;" vertex="1" parent="WIyWlLk6GJQsqaUBKTNV-1">
          <mxGeometry x="353.75" y="254" width="80" height="36" as="geometry" />
        </mxCell>
        <mxCell id="3ew8jx3CTY04XwqsGUMI-11" value="探索阶段" style="rounded=0;whiteSpace=wrap;html=1;" vertex="1" parent="WIyWlLk6GJQsqaUBKTNV-1">
          <mxGeometry x="496" y="250.5" width="86" height="43" as="geometry" />
        </mxCell>
        <mxCell id="3ew8jx3CTY04XwqsGUMI-16" value="&lt;font style=&quot;font-size: 10px; font-weight: normal;&quot;&gt;是&lt;/font&gt;" style="text;strokeColor=none;fillColor=none;html=1;fontSize=24;fontStyle=1;verticalAlign=middle;align=center;" vertex="1" parent="WIyWlLk6GJQsqaUBKTNV-1">
          <mxGeometry x="447" y="246" width="28" height="23" as="geometry" />
        </mxCell>
        <mxCell id="3ew8jx3CTY04XwqsGUMI-17" style="edgeStyle=orthogonalEdgeStyle;rounded=0;orthogonalLoop=1;jettySize=auto;html=1;exitX=0.5;exitY=1;exitDx=0;exitDy=0;" edge="1" parent="WIyWlLk6GJQsqaUBKTNV-1" source="3ew8jx3CTY04XwqsGUMI-8" target="3ew8jx3CTY04XwqsGUMI-8">
          <mxGeometry relative="1" as="geometry" />
        </mxCell>
        <mxCell id="3ew8jx3CTY04XwqsGUMI-18" value="&lt;font face=&quot;Times New Roman&quot;&gt;|E|&amp;lt;1？&lt;/font&gt;" style="rhombus;whiteSpace=wrap;html=1;" vertex="1" parent="WIyWlLk6GJQsqaUBKTNV-1">
          <mxGeometry x="353.75" y="307" width="80" height="36" as="geometry" />
        </mxCell>
        <mxCell id="3ew8jx3CTY04XwqsGUMI-20" value="&lt;span style=&quot;font-size: 10px; font-weight: 400;&quot;&gt;否&lt;/span&gt;" style="text;strokeColor=none;fillColor=none;html=1;fontSize=24;fontStyle=1;verticalAlign=middle;align=center;" vertex="1" parent="WIyWlLk6GJQsqaUBKTNV-1">
          <mxGeometry x="394" y="281" width="28" height="23" as="geometry" />
        </mxCell>
      </root>
    </mxGraphModel>
  </diagram>
</mxfile>
